<svg xmlns="http://www.w3.org/2000/svg" viewBox="0 0 128 128" fill="none">
  <defs>
    <linearGradient id="gearFill" x1="24" y1="16" x2="102" y2="108" gradientUnits="userSpaceOnUse">
      <stop stop-color="#2C6A46" />
      <stop offset="1" stop-color="#43845A" />
    </linearGradient>
    <linearGradient id="leafFill" x1="53" y1="32" x2="78" y2="84" gradientUnits="userSpaceOnUse">
      <stop stop-color="#71B383" />
      <stop offset="1" stop-color="#3D7F54" />
    </linearGradient>
    <linearGradient id="stemFill" x1="61" y1="52" x2="69" y2="86" gradientUnits="userSpaceOnUse">
      <stop stop-color="#4E8F61" />
      <stop offset="1" stop-color="#2A6542" />
    </linearGradient>
  </defs>
  <g>
    <g fill="url(#gearFill)">
      <rect x="56" y="4" width="16" height="22" rx="4" />
      <rect x="56" y="102" width="16" height="22" rx="4" />
      <rect x="4" y="56" width="22" height="16" rx="4" />
      <rect x="102" y="56" width="22" height="16" rx="4" />
      <rect x="17" y="17" width="18" height="18" rx="4" transform="rotate(-45 17 17)" />
      <rect x="93" y="17" width="18" height="18" rx="4" transform="rotate(-45 93 17)" />
      <rect x="17" y="93" width="18" height="18" rx="4" transform="rotate(-45 17 93)" />
      <rect x="93" y="93" width="18" height="18" rx="4" transform="rotate(-45 93 93)" />
      <circle cx="64" cy="64" r="47" />
    </g>
    <circle cx="64" cy="64" r="33.5" fill="#F7FBF8" stroke="#D8E8DC" stroke-width="3" />
    <path d="M64 84V57" stroke="url(#stemFill)" stroke-width="4.5" stroke-linecap="round" />
    <path d="M64 34C57 38 56 46 64 53C72 46 71 38 64 34Z" fill="url(#leafFill)" />
    <path d="M58 48C48 49.5 42 56.5 42 67C52 67 60 60.5 58 48Z" fill="url(#leafFill)" />
    <path d="M70 48C80 49.5 86 56.5 86 67C76 67 68 60.5 70 48Z" fill="url(#leafFill)" />
  </g>
</svg>
